<?xml version="1.0" standalone="no"?><!DOCTYPE svg PUBLIC "-//W3C//DTD SVG 1.1//EN" "http://www.w3.org/Graphics/SVG/1.1/DTD/svg11.dtd"><svg t="1633921957892" class="icon" viewBox="0 0 1024 1024" version="1.1" xmlns="http://www.w3.org/2000/svg" p-id="1991" xmlns:xlink="http://www.w3.org/1999/xlink" width="200" height="200"><defs><style type="text/css"></style></defs><path d="M954.432477 229.629384C861.67578 102.654515 712.077327 27.572494 552.722452 27.572494 279.684065 27.572494 58.25573 244.476112 58.25573 511.858603c0 267.523888 221.428335 484.568904 494.466722 484.568904 154.264568 0 300.045291-70.698702 393.508975-191.027893L552.722452 511.858603 954.432477 229.629384 954.432477 229.629384zM634.732947 175.615576c35.632146 0 64.335819 28.279481 64.335819 63.063242 0 34.783761-28.84507 63.063242-64.335819 63.063242-35.632146 0-64.335819-28.279481-64.335819-63.063242C570.25573 203.895057 599.100801 175.615576 634.732947 175.615576L634.732947 175.615576zM634.732947 175.615576" p-id="1992" fill="#f5723b"></path></svg>